<svg width="25" height="25" viewBox="0 0 25 25" fill="none" xmlns="http://www.w3.org/2000/svg">
<path fill-rule="evenodd" clip-rule="evenodd" d="M7.77884 4.77884C8.90406 3.65363 10.4302 3.02148 12.0215 3.02148C13.6128 3.02148 15.1389 3.65363 16.2641 4.77884C17.3893 5.90406 18.0215 7.43019 18.0215 9.02148V15.5215C18.0215 16.3499 18.6931 17.0215 19.5215 17.0215C20.3499 17.0215 21.0215 16.3499 21.0215 15.5215V10.5215C21.0215 9.69306 20.3499 9.02148 19.5215 9.02148C19.3462 9.02148 19.1779 9.05156 19.0215 9.10684V9.02148C19.0215 7.16497 18.284 5.38449 16.9712 4.07174C15.6585 2.75898 13.878 2.02148 12.0215 2.02148C10.165 2.02148 8.38449 2.75898 7.07174 4.07174C5.75898 5.38449 5.02148 7.16497 5.02148 9.02148V9.10684C4.86509 9.05156 4.6968 9.02148 4.52148 9.02148C3.69306 9.02148 3.02148 9.69306 3.02148 10.5215L3.02148 15.5215C3.02148 16.3499 3.69306 17.0215 4.52148 17.0215C4.6968 17.0215 4.86509 16.9914 5.02148 16.9361V17.6615L5.02149 17.6641C5.02742 18.8179 5.48841 19.9228 6.30431 20.7387C7.1202 21.5546 8.22508 22.0155 9.37891 22.0215L9.38148 22.0215H13.1915C13.6499 22.0215 14.0215 21.6499 14.0215 21.1915V20.8515C14.0215 20.3931 13.6499 20.0215 13.1915 20.0215H10.8515C10.3931 20.0215 10.0215 20.3931 10.0215 20.8515V21.0215H9.38298C8.49297 21.0166 7.64077 20.6609 7.01141 20.0316C6.38209 19.4022 6.02639 18.5501 6.02148 17.6602L6.02148 9.02148C6.02148 7.43019 6.65363 5.90406 7.77884 4.77884ZM19.0215 10.5215C19.0215 10.2453 19.2453 10.0215 19.5215 10.0215C19.7976 10.0215 20.0215 10.2453 20.0215 10.5215V15.5215C20.0215 15.7976 19.7976 16.0215 19.5215 16.0215C19.2453 16.0215 19.0215 15.7976 19.0215 15.5215V10.5215ZM4.52148 16.0215C4.79763 16.0215 5.02148 15.7976 5.02148 15.5215L5.02148 10.5215C5.02148 10.2453 4.79763 10.0215 4.52148 10.0215C4.24534 10.0215 4.02148 10.2453 4.02148 10.5215L4.02148 15.5215C4.02148 15.7976 4.24534 16.0215 4.52148 16.0215Z" fill="white"/>
</svg>
